<?xml version="1.0" encoding="UTF-8"?>
<svg width="390px" height="340px" viewBox="0 0 390 340" version="1.1" xmlns="http://www.w3.org/2000/svg" xmlns:xlink="http://www.w3.org/1999/xlink">
    <!-- Generator: Sketch 47.1 (45422) - http://www.bohemiancoding.com/sketch -->
    <title>energy-saving</title>
    <desc>Created with Sketch.</desc>
    <defs></defs>
    <g id="Zeipt.com" stroke="none" stroke-width="1" fill="none" fill-rule="evenodd">
        <g id="Artboard-2" transform="translate(-647.000000, -499.000000)" fill-rule="nonzero" fill="#3CBF71">
            <g id="energy-saving" transform="translate(647.000000, 499.000000)">
                <path d="M354.166,200.591 C354.15,200.587 354.135,200.583 354.119,200.58 L354.119,200.58 C350.288,199.65 346.425,201.992 345.479,205.82 C325.54,289.07 241.889,340.393 158.64,320.454 C109.348,308.648 68.942,273.488 50.439,226.3 L76.079,220.9 C79.963,220.159 82.511,216.409 81.77,212.525 C81.527,211.252 80.943,210.068 80.079,209.101 L57.079,183.421 L34.279,158.221 C31.858,155.094 27.361,154.523 24.234,156.944 C23.089,157.83 22.24,159.043 21.799,160.421 L11.079,193.181 L0.359,225.821 C-0.875,229.578 1.171,233.624 4.927,234.858 C6.125,235.251 7.405,235.322 8.639,235.061 L36.239,229.261 C69.108,316.807 166.724,361.131 254.27,328.261 C306.893,308.503 346.281,263.919 359.399,209.261 C360.348,205.421 358.005,201.54 354.166,200.591 Z" id="Shape"></path>
                <g id="Group" transform="translate(137.000000, 64.000000)">
                    <path d="M113.799,0.459 L37.359,0.459 C36.78,0.462 36.266,0.831 36.079,1.379 L0.439,110.419 C0.174,111.122 0.528,111.906 1.231,112.172 C1.374,112.226 1.526,112.256 1.679,112.259 L34.159,112.259 L9.159,209.459 C8.924,210.172 9.311,210.941 10.025,211.176 C10.526,211.341 11.077,211.202 11.439,210.819 L110.479,95.779 C110.965,95.207 110.895,94.348 110.323,93.862 C110.087,93.661 109.789,93.547 109.479,93.539 L67.279,93.539 L114.959,2.419 C115.073,2.238 115.142,2.032 115.159,1.819 C115.159,1.068 114.551,0.459 113.799,0.459 Z" id="Shape"></path>
                </g>
                <path d="M384.591,104.783 C383.393,104.39 382.113,104.319 380.879,104.58 L380.879,104.46 L353.279,110.26 C320.409,22.714 222.794,-21.61 135.248,11.26 C82.625,31.018 43.237,75.602 30.119,130.26 C29.343,134.137 31.857,137.91 35.734,138.686 C39.413,139.423 43.036,137.195 44.039,133.58 C63.978,50.33 147.629,-0.993 230.879,18.946 C280.171,30.752 320.577,65.912 339.079,113.1 L313.439,118.5 C309.555,119.241 307.007,122.991 307.748,126.875 C307.991,128.148 308.575,129.332 309.439,130.299 L332.439,155.979 L355.119,181.299 C357.54,184.426 362.037,184.997 365.164,182.576 C366.309,181.69 367.158,180.477 367.599,179.099 L378.319,146.339 L389.159,113.819 C390.393,110.062 388.348,106.017 384.591,104.783 Z" id="Shape"></path>
            </g>
        </g>
    </g>
</svg>