<?xml version="1.0" encoding="UTF-8"?>
<svg width="149px" height="162px" viewBox="0 0 149 162" version="1.1" xmlns="http://www.w3.org/2000/svg" xmlns:xlink="http://www.w3.org/1999/xlink">
    <!-- Generator: Sketch 47.1 (45422) - http://www.bohemiancoding.com/sketch -->
    <title>idea</title>
    <desc>Created with Sketch.</desc>
    <defs>
        <filter x="-26.5%" y="-24.2%" width="153.1%" height="148.4%" filterUnits="objectBoundingBox" id="filter-1">
            <feOffset dx="0" dy="0" in="SourceAlpha" result="shadowOffsetOuter1"></feOffset>
            <feGaussianBlur stdDeviation="10" in="shadowOffsetOuter1" result="shadowBlurOuter1"></feGaussianBlur>
            <feColorMatrix values="0 0 0 0 0.129411765   0 0 0 0 0.274509804   0 0 0 0 0.423529412  0 0 0 0.1 0" type="matrix" in="shadowBlurOuter1" result="shadowMatrixOuter1"></feColorMatrix>
            <feMerge>
                <feMergeNode in="shadowMatrixOuter1"></feMergeNode>
                <feMergeNode in="SourceGraphic"></feMergeNode>
            </feMerge>
        </filter>
    </defs>
    <g id="Zeipt-investor-1" stroke="none" stroke-width="1" fill="none" fill-rule="evenodd">
        <g id="Front-Page" transform="translate(-886.000000, -876.000000)" fill-rule="nonzero" fill="#FFFFFF">
            <g id="Group-5" transform="translate(690.000000, 794.000000)">
                <g id="idea" filter="url(#filter-1)" transform="translate(214.000000, 100.000000)">
                    <path d="M43.7736288,102 L69.1356749,102 C69.6575277,91.994352 73.3104973,82.5209194 79.2596192,74.5376896 C82.8082182,69.6413087 85,63.6804971 85,57.0810272 C85,40.6887954 71.6405683,27.3834124 55.3587609,28.0220708 C40.5381414,28.5542861 28.535527,40.9016815 28.0136742,56.0165965 C27.8049331,63.0418387 29.9967148,69.5348656 33.8584256,74.6441327 C39.7031769,82.6273624 43.1474054,92.1007951 43.7736288,102 Z" id="Shape"></path>
                    <g id="Group" transform="translate(38.000000, 101.000000)">
                        <path d="M33.5886525,6.325 L3.14893617,6.325 C1.36453901,6.325 0,4.96590909 0,3.18863636 L0,3.18863636 C0,1.41136364 1.36453901,0.0522727273 3.14893617,0.0522727273 L33.693617,0.0522727273 C35.4780142,0.0522727273 36.8425532,1.41136364 36.8425532,3.18863636 L36.8425532,3.18863636 C36.7375887,4.96590909 35.3730496,6.325 33.5886525,6.325 Z" id="Shape"></path>
                        <path d="M33.5886525,14.5840909 L3.14893617,14.5840909 C1.36453901,14.5840909 0,13.225 0,11.4477273 L0,11.4477273 C0,9.67045455 1.36453901,8.31136364 3.14893617,8.31136364 L33.693617,8.31136364 C35.4780142,8.31136364 36.8425532,9.67045455 36.8425532,11.4477273 L36.8425532,11.4477273 C36.7375887,13.1204545 35.3730496,14.5840909 33.5886525,14.5840909 Z" id="Shape"></path>
                        <path d="M33.5886525,22.8431818 L3.14893617,22.8431818 C1.36453901,22.8431818 0,21.4840909 0,19.7068182 L0,19.7068182 C0,17.9295455 1.36453901,16.5704545 3.14893617,16.5704545 L33.693617,16.5704545 C35.4780142,16.5704545 36.8425532,17.9295455 36.8425532,19.7068182 L36.8425532,19.7068182 C36.7375887,21.3795455 35.3730496,22.8431818 33.5886525,22.8431818 Z" id="Shape"></path>
                    </g>
                    <g id="Group">
                        <path d="M56.5,18.2152174 L56.5,18.2152174 C55.0214953,18.2152174 53.8598131,17.0434783 53.8598131,15.5521739 L53.8598131,2.66304348 C53.8598131,1.17173913 55.0214953,0 56.5,0 L56.5,0 C57.9785047,0 59.1401869,1.17173913 59.1401869,2.66304348 L59.1401869,15.5521739 C59.1401869,17.0434783 57.9785047,18.2152174 56.5,18.2152174 Z" id="Shape"></path>
                        <path d="M94.9411215,56.8826087 L94.9411215,56.8826087 C94.9411215,55.3913043 96.1028037,54.2195652 97.5813084,54.2195652 L110.359813,54.2195652 C111.838318,54.2195652 113,55.3913043 113,56.8826087 L113,56.8826087 C113,58.373913 111.838318,59.5456522 110.359813,59.5456522 L97.5813084,59.5456522 C96.1028037,59.5456522 94.9411215,58.373913 94.9411215,56.8826087 Z" id="Shape"></path>
                        <path d="M0.105607477,56.8826087 L0.105607477,56.8826087 C0.105607477,55.3913043 1.26728972,54.2195652 2.74579439,54.2195652 L15.5242991,54.2195652 C17.0028037,54.2195652 18.164486,55.3913043 18.164486,56.8826087 L18.164486,56.8826087 C18.164486,58.373913 17.0028037,59.5456522 15.5242991,59.5456522 L2.74579439,59.5456522 C1.26728972,59.5456522 0.105607477,58.373913 0.105607477,56.8826087 Z" id="Shape"></path>
                        <path d="M83.6411215,29.5065217 L83.6411215,29.5065217 C82.5850467,28.4413043 82.5850467,26.8434783 83.6411215,25.7782609 L92.7233645,16.6173913 C93.7794393,15.5521739 95.3635514,15.5521739 96.4196262,16.6173913 L96.4196262,16.6173913 C97.4757009,17.6826087 97.4757009,19.2804348 96.4196262,20.3456522 L87.3373832,29.5065217 C86.2813084,30.5717391 84.6971963,30.5717391 83.6411215,29.5065217 Z" id="Shape"></path>
                        <path d="M16.5803738,97.1478261 L16.5803738,97.1478261 C15.5242991,96.0826087 15.5242991,94.4847826 16.5803738,93.4195652 L25.6626168,84.2586957 C26.7186916,83.1934783 28.3028037,83.1934783 29.3588785,84.2586957 L29.3588785,84.2586957 C30.4149533,85.323913 30.4149533,86.9217391 29.3588785,87.9869565 L20.2766355,97.1478261 C19.3261682,98.2130435 17.6364486,98.2130435 16.5803738,97.1478261 Z" id="Shape"></path>
                        <path d="M83.6411215,84.2586957 L83.6411215,84.2586957 C84.6971963,83.1934783 86.2813084,83.1934783 87.3373832,84.2586957 L96.4196262,93.4195652 C97.4757009,94.4847826 97.4757009,96.0826087 96.4196262,97.1478261 L96.4196262,97.1478261 C95.3635514,98.2130435 93.7794393,98.2130435 92.7233645,97.1478261 L83.6411215,87.9869565 C82.5850467,87.0282609 82.5850467,85.323913 83.6411215,84.2586957 Z" id="Shape"></path>
                        <path d="M16.5803738,16.723913 L16.5803738,16.723913 C17.6364486,15.6586957 19.2205607,15.6586957 20.2766355,16.723913 L29.3588785,25.8847826 C30.4149533,26.95 30.4149533,28.5478261 29.3588785,29.6130435 L29.3588785,29.6130435 C28.3028037,30.6782609 26.7186916,30.6782609 25.6626168,29.6130435 L16.5803738,20.4521739 C15.6299065,19.3869565 15.6299065,17.6826087 16.5803738,16.723913 Z" id="Shape"></path>
                    </g>
                </g>
            </g>
        </g>
    </g>
</svg>