<?xml version="1.0" encoding="UTF-8"?>
<svg width="398px" height="284px" viewBox="0 0 398 284" version="1.1" xmlns="http://www.w3.org/2000/svg" xmlns:xlink="http://www.w3.org/1999/xlink">
    <!-- Generator: Sketch 47.1 (45422) - http://www.bohemiancoding.com/sketch -->
    <title>notes (1)</title>
    <desc>Created with Sketch.</desc>
    <defs></defs>
    <g id="Zeipt.com" stroke="none" stroke-width="1" fill="none" fill-rule="evenodd">
        <g id="Artboard-2" transform="translate(-135.000000, -479.000000)" fill-rule="nonzero">
            <g id="notes-(1)" transform="translate(135.000000, 479.000000)">
                <rect id="XMLID_115_" fill="#3CBF71" x="0" y="57" width="398" height="227"></rect>
                <polygon id="XMLID_114_" fill="#35B268" points="369 56 14 56 14 28"></polygon>
                <path d="M292,170.5 C292,221.588462 250.588462,263 199.5,263 C148.411538,263 107,221.588462 107,170.5 C107,119.411538 148.411538,78 199.5,78 C250.588462,78 292,119.411538 292,170.5" id="XMLID_79_" fill="#2C9858"></path>
                <path d="M150,248 C124.103144,231.683818 106.833851,202.894727 106.833851,170 C106.833851,137.105273 124.103144,108.316182 150,92 L78.323226,92 C78.4294768,93.17 78.5003107,94.3470909 78.5003107,95.5454545 C78.5003107,117.087636 61.0539331,134.545455 39.5416926,134.545455 C38.3446005,134.545455 37.1687585,134.474545 36,134.368182 L36,205.631818 C37.1687585,205.525455 38.3446005,205.454545 39.5416926,205.454545 C61.0539331,205.454545 78.5003107,222.912364 78.5003107,244.454545 C78.5003107,245.652909 78.4294768,246.83 78.323226,248 L150,248 Z" id="XMLID_112_" fill="#EAEAD7"></path>
                <path d="M358.458307,134.545455 C336.938983,134.545455 319.499689,117.087636 319.499689,95.5454545 C319.499689,94.3470909 319.570523,93.17 319.676774,92 L248,92 C273.896856,108.316182 291.166149,137.105273 291.166149,170 C291.166149,202.894727 273.896856,231.683818 248,248 L319.676774,248 C319.570523,246.83 319.499689,245.652909 319.499689,244.454545 C319.499689,222.912364 336.938983,205.454545 358.458307,205.454545 C359.6554,205.454545 360.831241,205.525455 362,205.631818 L362,134.368182 C360.831241,134.474545 359.6554,134.545455 358.458307,134.545455" id="XMLID_111_" fill="#EAEAD7"></path>
                <path d="M39,113 C29.0712,113 21,105.153 21,95.5 C21,85.847 29.0712,78 39,78 C48.9288,78 57,85.847 57,95.5 C57,105.153 48.9288,113 39,113" id="XMLID_110_" fill="#EAEAD7"></path>
                <path d="M359,113 C349.0712,113 341,105.153 341,95.5 C341,85.847 349.0712,78 359,78 C368.9288,78 377,85.847 377,95.5 C377,105.153 368.9288,113 359,113" id="XMLID_109_" fill="#EAEAD7"></path>
                <path d="M39,263 C29.0712,263 21,254.9288 21,245 C21,235.0712 29.0712,227 39,227 C48.9288,227 57,235.0712 57,245 C57,254.9288 48.9288,263 39,263" id="XMLID_108_" fill="#EAEAD7"></path>
                <path d="M359,263 C349.0712,263 341,254.9288 341,245 C341,235.0712 349.0712,227 359,227 C368.9288,227 377,235.0712 377,245 C377,254.9288 368.9288,263 359,263" id="XMLID_107_" fill="#EAEAD7"></path>
                <polygon id="XMLID_106_" fill="#23A558" points="36 0 36 30.21 369.7 57 391 57"></polygon>
                <path d="M237.746444,191.421775 C242.770616,189.865163 246.464443,185.223627 246.464443,179.704729 L246.464443,173.549034 C246.464443,168.829668 243.747145,164.754173 239.826876,162.688124 C237.109578,139.5229 221.796469,130.147848 197.178028,130.147848 C196.017516,130.147848 194.871155,130.190301 193.7531,130.282283 C185.38184,130.947381 176.918588,129.376617 169.962587,124.685553 C167.068381,122.732712 164.634134,120.666663 162.92167,118.487405 C162.136201,117.496834 160.572339,118.126554 160.720942,119.385995 C160.968612,121.536951 161.329503,124.055833 161.881454,126.801131 C163.912352,137.025245 162.695229,135.532312 158.739578,145.183309 C156.553002,150.518245 155.144819,156.440448 154.486723,162.709351 C150.594759,164.789551 147.891614,168.843819 147.891614,173.549034 L147.891614,179.704729 C147.891614,185.223627 151.592517,189.865163 156.609613,191.421775 C159.942549,203.888826 166.785329,213.858221 178.694738,218.987967 L178.694738,226.042252 C178.694738,227.846507 177.668675,229.488026 176.055279,230.287559 L152.271842,242.004605 C150.212639,243.122536 148.514328,244.657922 147,246.348969 C161.662089,256.226383 179.331605,262 198.345618,262 C216.652,262 233.670497,256.587234 248,247.367843 C246.238002,245.231038 244.023121,243.44801 241.447348,242.160266 L218.244167,230.30171 C216.659077,229.495101 215.661319,227.867734 215.661319,226.09178 L215.661319,218.987967 C227.570728,213.858221 234.413508,203.888826 237.746444,191.421775" id="XMLID_105_" fill="#EAEAD7"></path>
            </g>
        </g>
    </g>
</svg>