<?xml version="1.0" encoding="UTF-8"?>
<svg width="307px" height="336px" viewBox="0 0 307 336" version="1.1" xmlns="http://www.w3.org/2000/svg" xmlns:xlink="http://www.w3.org/1999/xlink">
    <!-- Generator: Sketch 47.1 (45422) - http://www.bohemiancoding.com/sketch -->
    <title>sprout</title>
    <desc>Created with Sketch.</desc>
    <defs></defs>
    <g id="Zeipt.com" stroke="none" stroke-width="1" fill="none" fill-rule="evenodd">
        <g id="Artboard-2" transform="translate(-1304.000000, -471.000000)" fill-rule="nonzero">
            <g id="sprout" transform="translate(1304.000000, 471.000000)">
                <path d="M171.607726,138.13462 C169.081572,140.799528 165.510429,142.203555 161.837272,141.976087 C160.566675,141.895689 130.363996,139.820369 99.4720698,123.181203 C70.2797224,107.457139 35.0522016,75.5514603 33.0066905,12.8434541 C32.8942135,9.42358786 34.2040469,6.11091926 36.6236093,3.69112857 C40.3144229,0 44.6460935,0 46.4960779,0 C46.4967318,0 46.4967318,0 46.4967318,0 C47.8052573,0 78.5690124,0.220931726 110.267242,19.2190993 C126.722228,29.081936 140.402565,42.1933842 150.929623,58.1906714 C163.646058,77.5163147 171.715626,101.062538 174.91468,128.173737 C175.344969,131.821072 174.133226,135.46906 171.607726,138.13462 Z" id="Shape" fill="#3CBF71"></path>
                <path d="M151.364307,59 C146.183551,68.5532884 141.814043,79.3129648 138.6787,91.4342293 C135.859241,99.8476441 131.553693,114.629483 128,135.081345 C146.743527,140.942435 161.000069,141.921891 161.863528,141.976016 C165.53013,142.203599 169.093612,140.802885 171.614809,138.143615 C174.135353,135.484344 175.344718,131.844965 174.91462,128.207543 C171.755129,101.442032 163.827359,78.1659181 151.364307,59 Z" id="Shape" fill="#2C9858"></path>
                <path d="M160.452147,117.154607 L133.775125,91.0140691 L126.740261,55.7889136 C126.183672,52.9970844 123.480521,51.1904134 120.701501,51.7490421 C117.923135,52.3089853 116.124523,55.0265497 116.681112,57.8170644 L120.765597,78.2668189 L106.052947,63.8502546 L98.9212843,28.1407352 C98.3646954,25.348906 95.6602362,23.5442066 92.8825244,24.1008637 C90.1041585,24.6608069 88.3055459,27.3777141 88.8621348,30.1688861 L93.0427644,51.1023472 L58.7108479,17.4636973 C56.6807048,15.4762935 53.4353537,15.518355 51.4568799,17.5557068 C49.4790601,19.594373 49.5202647,22.8574219 51.5484456,24.8441685 L89.2990341,61.8345908 L62.9647301,61.3824301 C60.134695,61.3048793 57.7971527,63.6018291 57.7480996,66.4482068 C57.7003546,69.2945844 59.9567958,71.640825 62.7894471,71.6901158 L100.008954,72.3295814 L117.5209,89.4893413 L90.783707,89.0312657 C87.9765633,88.9681735 85.6161296,91.2506648 85.5670766,94.0970424 C85.5193316,96.94342 87.7757728,99.2896606 90.608424,99.3389514 L128.230166,99.9843319 L153.287129,124.536393 C154.285195,125.513664 155.576926,126 156.867349,126 C158.201592,126 159.534527,125.479489 160.541096,124.443726 C162.520878,122.404403 162.480328,119.141354 160.452147,117.154607 Z" id="Shape" fill="#2C9858"></path>
                <path d="M292.600727,3.87892042 C290.06936,1.20467769 286.490848,-0.204268441 282.810112,0.0239965749 C281.536893,0.104676451 251.271894,2.18726676 220.316225,18.8847215 C196.52872,31.7154456 168.74463,55.2844644 158.089694,97.4780719 C152.270107,114.632713 139.449454,161.154828 142.448038,231.202015 C142.707531,237.262189 147.696872,242.000656 153.699284,242 C153.861795,242 154.025616,241.99672 154.190092,241.989505 C160.408093,241.72254 165.232957,236.461294 164.966912,230.235825 C163.413231,193.94759 166.398054,164.281665 170.244578,142.391182 C178.900239,141.89464 204.690296,139.081995 231.133672,123.211017 C247.622611,113.313629 261.331176,100.15625 271.879956,84.1029227 C284.62263,64.7095794 292.708849,41.0808706 295.914504,13.8746979 C296.345681,10.2145865 295.131438,6.55381909 292.600727,3.87892042 Z" id="Shape" fill="#3CBF71"></path>
                <path d="M276.542949,17.5559549 C274.563812,15.5179382 271.316482,15.4765338 269.288945,17.4639451 L234.959473,51.1020647 L239.140124,30.1691818 C239.696715,27.3779993 237.898094,24.661739 235.119714,24.1011366 C232.345258,23.5438202 229.638169,25.3491836 229.080924,28.1410233 L221.948572,63.8506774 L207.236502,78.267296 L211.321008,57.8174645 C211.878253,55.026282 210.078978,52.3100217 207.300598,51.7494193 C204.523526,51.1907884 201.819053,52.9974663 201.261808,55.789306 L194.226254,91.0152515 L167.548445,117.155888 C165.5196,119.1433 165.479703,122.406361 167.456879,124.444377 C168.462799,125.480145 169.795087,126 171.130645,126 C172.421729,126 173.71412,125.513663 174.710883,124.536387 L199.767971,99.9842338 L237.391209,99.3388508 C240.223875,99.2902171 242.480327,96.9439676 242.432582,94.096922 C242.384837,91.2801083 240.097644,89.0304691 237.30553,89.0304691 C237.275444,89.0304691 237.245358,89.0304691 237.215926,89.0311263 L210.477945,89.4892035 L227.989978,72.3293789 L265.209671,71.689911 C268.042337,71.6412772 270.298789,69.2950277 270.251044,66.4479822 C270.203299,63.6311684 267.916106,61.3815292 265.123992,61.3815292 C265.093906,61.3815292 265.06382,61.3815292 265.034388,61.3821864 L238.699952,61.8343487 L276.450729,24.843787 C278.480228,22.8570329 278.520779,19.5939716 276.542949,17.5559549 Z" id="Shape" fill="#2C9858"></path>
                <path d="M279.978003,268.304916 C274.799469,268.304916 269.962679,269.763519 265.851931,272.289888 C259.780411,252.425913 241.307251,237.976054 219.455277,237.976054 C217.030335,237.976054 214.649257,238.159361 212.320553,238.503062 C202.415215,215.842341 179.812322,200 153.5,200 C127.187678,200 104.584785,215.842341 94.6794468,238.503062 C92.3500885,238.159361 89.9683556,237.976054 87.5447231,237.976054 C65.6927495,237.976054 47.220244,252.425913 41.148069,272.289888 C37.0373211,269.763519 32.2011857,268.304916 27.0219969,268.304916 C12.0985222,268.304916 0,280.403204 0,295.326389 C0,310.249574 12.0985222,322.347862 27.0219969,322.347862 C35.0195914,322.347862 42.2027616,318.871568 47.1495383,313.350088 C55.8450238,326.398301 70.6879726,335 87.5440684,335 C101.194841,335 113.521848,329.353478 122.336485,320.278453 C131.565536,325.416297 142.187096,328.353143 153.5,328.353143 C164.812249,328.353143 175.434464,325.415642 184.663515,320.278453 C193.479462,329.353478 205.805159,335 219.455932,335 C236.312027,335 251.155631,326.39961 259.850462,313.350088 C264.797893,318.871568 271.981063,322.347862 279.978003,322.347862 C294.901478,322.347862 307,310.249574 307,295.326389 C307,280.402549 294.901478,268.304916 279.978003,268.304916 Z" id="Shape" fill="#CC7400"></path>
                <g id="Group" transform="translate(0.000000, 200.000000)" fill="#AA6100">
                    <path d="M189.077547,26.8833237 C195.457625,26.8833237 201.613864,27.8313816 207.431071,29.5717874 C195.960937,12.0757488 176.233616,0.518376812 153.809095,0.518376812 C127.503382,0.518376812 104.907382,16.4172367 95.0047786,39.1588019 C92.6760633,38.8138744 90.2949878,38.629913 87.8720243,38.629913 C66.0260827,38.629913 47.5586764,53.1313237 41.4881776,73.0661643 C37.3785645,70.5307826 32.543764,69.0669758 27.3660049,69.0669758 C12.4466496,69.0669758 0.351467153,81.2084251 0.351467153,96.1848502 C0.351467153,111.161275 12.4466496,123.302725 27.3660049,123.302725 C35.3613917,123.302725 42.5425791,119.814029 47.4879903,114.27285 C56.1810754,127.367614 71.019927,136 87.8713698,136 C101.518375,136 113.841978,130.333333 122.654182,121.225932 C126.678056,123.47486 130.966348,125.30199 135.460808,126.649507 C128.803221,116.498126 124.918102,104.35142 124.918102,91.2888502 C124.918102,55.7192657 153.643506,26.8833237 189.077547,26.8833237 Z" id="Shape"></path>
                    <ellipse id="Oval" cx="179.32417" cy="76.2217585" rx="11.6311411" ry="11.6756329"></ellipse>
                    <ellipse id="Oval" cx="226.220491" cy="103.716754" rx="11.6311411" ry="11.6756329"></ellipse>
                    <ellipse id="Oval" cx="219.068102" cy="63.7656039" rx="4.47547932" ry="4.49259903"></ellipse>
                    <ellipse id="Oval" cx="153.809095" cy="108.21001" rx="4.47547932" ry="4.49259903"></ellipse>
                    <ellipse id="Oval" cx="167.689102" cy="46.9745314" rx="4.47547932" ry="4.49259903"></ellipse>
                    <ellipse id="Oval" cx="263.99372" cy="87.9013333" rx="4.47547932" ry="4.49259903"></ellipse>
                </g>
                <g id="Group" transform="translate(226.000000, 196.000000)" fill="#CC7400">
                    <ellipse id="Oval" cx="11.9976515" cy="12.0505846" rx="11.5780758" ry="11.7562"></ellipse>
                    <ellipse id="Oval" cx="38.0165606" cy="38.3381385" rx="4.45506061" ry="4.5236"></ellipse>
                    <ellipse id="Oval" cx="38.0165606" cy="16.5748462" rx="4.45506061" ry="4.5236"></ellipse>
                </g>
                <g id="Group" transform="translate(36.000000, 192.000000)" fill="#AA6100">
                    <ellipse id="Oval" cx="23.9105455" cy="11.7744375" rx="11.6319273" ry="11.6622187"></ellipse>
                    <ellipse id="Oval" cx="4.59490909" cy="37.4817187" rx="4.47578182" ry="4.4874375"></ellipse>
                </g>
            </g>
        </g>
    </g>
</svg>