<?xml version="1.0" encoding="UTF-8" standalone="no"?>
<svg width="100px" height="136px" viewBox="0 0 100 136" version="1.1" xmlns="http://www.w3.org/2000/svg" xmlns:xlink="http://www.w3.org/1999/xlink">
    <g id="Page-1" stroke="none" stroke-width="1" fill="none" fill-rule="evenodd">
        <g id="Content-Copy-38" transform="translate(-670.000000, -50.000000)">
            <g id="Group-6" transform="translate(40.000000, 50.000000)">
                <g id="Zeipt-Font-+-Fill-26-+-Fill-27-+-Fill-28-Copy" transform="translate(630.000000, 0.000000)">
                    <g id="Zeipt-Font" transform="translate(0.000000, 87.610619)">
                        <polygon id="Rectangle-748" fill="#FFFFFF" points="23.8938053 33.6283186 23.8938053 37.1681416 0 37.1681416 0 33.6283186 19.4690265 3.53982301 0 3.53982301 0 0 23.8938053 0 23.8938053 3.53982301 4.42477876 33.6283186"></polygon>
                        <path d="M50.7245422,26.5486726 C49.0017565,32.6979392 43.7821619,37.1681416 37.6106195,37.1681416 C30.0350322,37.1681416 23.8938053,30.4326024 23.8938053,22.1238938 C23.8938053,13.8151852 30.0350322,7.07964602 37.6106195,7.07964602 C45.1862067,7.07964602 51.3274336,13.8151852 51.3274336,22.1238938 C51.3274336,22.4209688 51.3195827,22.7160327 51.304096,23.0088496 L47.7579489,23.0088496 C47.7776036,22.7167773 47.7876106,22.4216566 47.7876106,22.1238938 C47.7876106,15.7701754 43.2312165,10.619469 37.6106195,10.619469 C31.9900225,10.619469 27.4336283,15.7701754 27.4336283,22.1238938 C27.4336283,28.4776122 31.9900225,33.6283186 37.6106195,33.6283186 C41.8441695,33.6283186 45.4739531,30.7061095 47.0076408,26.5486726 L50.7245422,26.5486726 Z" id="Oval-36" fill="#FFFFFF"></path>
                        <rect id="Rectangle-749" fill="#FFFFFF" x="24.7787611" y="19.4690265" width="24.7787611" height="3.53982301"></rect>
                        <rect id="Rectangle-751" fill="#FFFFFF" x="54.8672566" y="7.07964602" width="3.53982301" height="30.0884956"></rect>
                        <rect id="Rectangle-751" fill="#3CBF71" x="54.8672566" y="0" width="3.53982301" height="3.53982301"></rect>
                        <path d="M92.920354,0 L96.460177,0 L96.460177,32.6218898 C96.460177,33.1777251 96.908498,33.6283186 97.4650797,33.6283186 L100,33.6283186 L100,37.1681416 L96.460177,37.1681416 L96.460177,37.1681416 C94.5051867,37.1681416 92.920354,35.582963 92.920354,33.6379443 L92.920354,0 Z" id="Rectangle-751" fill="#FFFFFF"></path>
                        <rect id="Rectangle-751" fill="#FFFFFF" x="89.380531" y="7.07964602" width="10.619469" height="3.53982301"></rect>
                        <rect id="Rectangle-751" fill="#FFFFFF" x="61.9469027" y="7.07964602" width="3.53982301" height="40.7079646"></rect>
                        <path d="M75.6637168,37.1681416 C83.2393041,37.1681416 89.380531,30.4326024 89.380531,22.1238938 C89.380531,13.8151852 83.2393041,7.07964602 75.6637168,7.07964602 C68.0881295,7.07964602 61.9469027,13.8151852 61.9469027,22.1238938 C61.9469027,30.4326024 68.0881295,37.1681416 75.6637168,37.1681416 Z M75.6637168,33.6283186 C81.2843138,33.6283186 85.840708,28.4776122 85.840708,22.1238938 C85.840708,15.7701754 81.2843138,10.619469 75.6637168,10.619469 C70.0431198,10.619469 65.4867257,15.7701754 65.4867257,22.1238938 C65.4867257,28.4776122 70.0431198,33.6283186 75.6637168,33.6283186 Z" id="Oval-36" fill="#FFFFFF"></path>
                    </g>
                    <g id="Fill-26-+-Fill-27-+-Fill-28" fill="#3CBF71">
                        <polygon id="Fill-26" points="0 79.6460177 45.1327434 0 100 0 54.8672566 79.6460177"></polygon>
                        <polyline id="Fill-27" points="100 79.6460177 62.8318584 79.6460177 100 14.159292"></polyline>
                        <polygon id="Fill-28" points="37.1681416 0 0 65.4867257 0 0"></polygon>
                    </g>
                </g>
            </g>
        </g>
    </g>
</svg>